<svg xmlns="http://www.w3.org/2000/svg" xmlns:xlink="http://www.w3.org/1999/xlink" viewBox="0 0 16 16" fill="#FFFFFF">
  <path d="M2.5 3C1.675781 3 1 3.675781 1 4.5L1 10.5C1 11.324219 1.675781 12 2.5 12L10.710938 12C11.109375 12.003906 11.492188 11.832031 11.769531 11.542969L14.578125 8.574219C15.144531 7.972656 15.144531 7.023438 14.578125 6.425781L11.769531 3.460938C11.496094 3.167969 11.113281 3 10.710938 3 Z M 2.5 4L10.714844 4C10.832031 4 10.949219 4.046875 11.042969 4.148438L13.851563 7.113281C14.046875 7.320313 14.046875 7.679688 13.851563 7.886719L11.042969 10.855469C10.949219 10.953125 10.832031 11.003906 10.714844 11L2.5 11C2.222656 11 2 10.777344 2 10.5L2 4.5C2 4.222656 2.222656 4 2.5 4 Z M 11.5 7C11.222656 7 11 7.222656 11 7.5C11 7.777344 11.222656 8 11.5 8C11.777344 8 12 7.777344 12 7.5C12 7.222656 11.777344 7 11.5 7Z" fill="#FFFFFF" />
</svg>